<mxfile host="app.diagrams.net" agent="Mozilla/5.0 (Windows NT 10.0; Win64; x64) AppleWebKit/537.36 (KHTML, like Gecko) Chrome/134.0.0.0 Safari/537.36" version="26.2.13">
  <diagram name="Di_chuyen" id="Di_chuyen">
    <mxGraphModel dx="1238" dy="535" grid="1" gridSize="10" guides="1" tooltips="1" connect="1" arrows="1" fold="1" page="1" pageScale="1" pageWidth="827" pageHeight="1169" math="0" shadow="0">
      <root>
        <mxCell id="0" />
        <mxCell id="1" parent="0" />
        <mxCell id="2" value="" style="swimlane;horizontal=0;" parent="1" vertex="1">
          <mxGeometry x="40" y="40" width="480" height="400" as="geometry" />
        </mxCell>
        <mxCell id="3" value="Người chơi" style="swimlane;horizontal=1;" parent="2" vertex="1">
          <mxGeometry y="30" width="240" height="370" as="geometry" />
        </mxCell>
        <mxCell id="pIeYQmLoHrJEoi5VYW9u-7" value="Nhấn nút &quot;Lắc xúc xắc&quot;" style="rounded=1;whiteSpace=wrap;html=1;" vertex="1" parent="3">
          <mxGeometry x="60" y="50" width="120" height="60" as="geometry" />
        </mxCell>
        <mxCell id="4" value="Hệ thống" style="swimlane;horizontal=1;" parent="2" vertex="1">
          <mxGeometry x="240" y="30" width="240" height="370" as="geometry" />
        </mxCell>
        <mxCell id="pIeYQmLoHrJEoi5VYW9u-15" style="edgeStyle=orthogonalEdgeStyle;rounded=0;orthogonalLoop=1;jettySize=auto;html=1;exitX=0.5;exitY=1;exitDx=0;exitDy=0;entryX=0.5;entryY=0;entryDx=0;entryDy=0;" edge="1" parent="4" source="pIeYQmLoHrJEoi5VYW9u-8" target="pIeYQmLoHrJEoi5VYW9u-10">
          <mxGeometry relative="1" as="geometry" />
        </mxCell>
        <mxCell id="pIeYQmLoHrJEoi5VYW9u-8" value="Tính giá trị xúc xắc" style="rounded=0;whiteSpace=wrap;html=1;" vertex="1" parent="4">
          <mxGeometry x="60" y="50" width="120" height="60" as="geometry" />
        </mxCell>
        <mxCell id="pIeYQmLoHrJEoi5VYW9u-16" style="edgeStyle=orthogonalEdgeStyle;rounded=0;orthogonalLoop=1;jettySize=auto;html=1;exitX=0.5;exitY=1;exitDx=0;exitDy=0;entryX=0.5;entryY=0;entryDx=0;entryDy=0;" edge="1" parent="4" source="pIeYQmLoHrJEoi5VYW9u-10" target="pIeYQmLoHrJEoi5VYW9u-11">
          <mxGeometry relative="1" as="geometry" />
        </mxCell>
        <mxCell id="pIeYQmLoHrJEoi5VYW9u-10" value="Di chuyển theo số bước" style="rounded=0;whiteSpace=wrap;html=1;" vertex="1" parent="4">
          <mxGeometry x="60" y="130" width="120" height="60" as="geometry" />
        </mxCell>
        <mxCell id="pIeYQmLoHrJEoi5VYW9u-17" style="edgeStyle=orthogonalEdgeStyle;rounded=0;orthogonalLoop=1;jettySize=auto;html=1;exitX=0.5;exitY=1;exitDx=0;exitDy=0;entryX=0.5;entryY=0;entryDx=0;entryDy=0;" edge="1" parent="4" source="pIeYQmLoHrJEoi5VYW9u-11" target="pIeYQmLoHrJEoi5VYW9u-12">
          <mxGeometry relative="1" as="geometry" />
        </mxCell>
        <mxCell id="pIeYQmLoHrJEoi5VYW9u-11" value="Xác định ô đến" style="rounded=0;whiteSpace=wrap;html=1;" vertex="1" parent="4">
          <mxGeometry x="60" y="210" width="120" height="60" as="geometry" />
        </mxCell>
        <mxCell id="pIeYQmLoHrJEoi5VYW9u-12" value="Gọi xử lý sự kiện tương ứng" style="rounded=0;whiteSpace=wrap;html=1;" vertex="1" parent="4">
          <mxGeometry x="60" y="290" width="120" height="60" as="geometry" />
        </mxCell>
        <mxCell id="pIeYQmLoHrJEoi5VYW9u-5" value="Lắc xúc xắc &amp;amp; di chuyển" style="text;html=1;align=center;verticalAlign=middle;resizable=0;points=[];autosize=1;strokeColor=none;fillColor=none;" vertex="1" parent="2">
          <mxGeometry x="165" width="150" height="30" as="geometry" />
        </mxCell>
        <mxCell id="pIeYQmLoHrJEoi5VYW9u-14" style="edgeStyle=orthogonalEdgeStyle;rounded=0;orthogonalLoop=1;jettySize=auto;html=1;exitX=1;exitY=0.5;exitDx=0;exitDy=0;entryX=0;entryY=0.5;entryDx=0;entryDy=0;" edge="1" parent="2" source="pIeYQmLoHrJEoi5VYW9u-7" target="pIeYQmLoHrJEoi5VYW9u-8">
          <mxGeometry relative="1" as="geometry" />
        </mxCell>
      </root>
    </mxGraphModel>
  </diagram>
</mxfile>
